<svg xmlns="http://www.w3.org/2000/svg" version="1.1" xmlns:xlink="http://www.w3.org/1999/xlink" xmlns:svgjs="http://svgjs.dev/svgjs" viewBox="0 0 2400 800" opacity="0.63">
	<defs>
		<linearGradient x1="50%" y1="0%" x2="50%" y2="100%" id="sssurf-grad">
			<stop stop-color="hsl(208, 77%, 50%)" stop-opacity="1" offset="0%">
			</stop>
			<stop stop-color="hsla(208, 47%, 76%, 1.00)" stop-opacity="1" offset="100%">
			</stop>
		</linearGradient>
	</defs>
	<g fill="url(#sssurf-grad)" transform="matrix(1,0,0,1,0,-259.4662780761719)">
		<path d="M 0 341.1358202842477 Q 450 599.7782718018199 600 318.93258784299485 Q 1050 636.45367085314 1200 325.2828945752731 Q 1650 574.6800474491926 1800 335.2958444373826 Q 2250 604.2973663609267 2400 329.9786379036891 L 2400 800 L 0 800 L 0 338.58178463836776 Z" transform="matrix(1,0,0,1,0,150)" opacity="0.05">
		</path>
		<path d="M 0 341.1358202842477 Q 450 599.7782718018199 600 318.93258784299485 Q 1050 636.45367085314 1200 325.2828945752731 Q 1650 574.6800474491926 1800 335.2958444373826 Q 2250 604.2973663609267 2400 329.9786379036891 L 2400 800 L 0 800 L 0 338.58178463836776 Z" transform="matrix(1,0,0,1,0,300)" opacity="0.53">
		</path>
		<path d="M 0 341.1358202842477 Q 450 599.7782718018199 600 318.93258784299485 Q 1050 636.45367085314 1200 325.2828945752731 Q 1650 574.6800474491926 1800 335.2958444373826 Q 2250 604.2973663609267 2400 329.9786379036891 L 2400 800 L 0 800 L 0 338.58178463836776 Z" transform="matrix(1,0,0,1,0,450)" opacity="1.00">
		</path>
	</g>
</svg>
