<svg xmlns="http://www.w3.org/2000/svg" version="1.1" xmlns:xlink="http://www.w3.org/1999/xlink" xmlns:svgjs="http://svgjs.dev/svgjs" viewBox="0 0 800 800"><g><circle r="37.5" cx="0" cy="0" fill="hsl(250, 73%, 50%)"></circle><circle r="37.5" cx="0" cy="75" fill="hsl(250, 73%, 50%)"></circle><circle r="37.5" cx="0" cy="150" fill="hsl(250, 73%, 50%)"></circle><circle r="37.5" cx="0" cy="225" fill="hsl(250, 73%, 50%)"></circle><circle r="37.5" cx="0" cy="300" fill="hsl(250, 73%, 50%)"></circle><circle r="37.5" cx="0" cy="375" fill="hsl(250, 73%, 50%)"></circle><circle r="37.5" cx="0" cy="450" fill="hsl(250, 73%, 50%)"></circle><circle r="37.5" cx="0" cy="525" fill="hsl(250, 73%, 50%)"></circle><circle r="37.5" cx="0" cy="600" fill="hsl(250, 73%, 50%)"></circle><circle r="37.5" cx="0" cy="675" fill="hsl(249, 73%, 50%)"></circle><circle r="37.5" cx="0" cy="750" fill="hsl(248, 73%, 50%)"></circle><circle r="37.5" cx="0" cy="825" fill="hsl(248, 73%, 50%)"></circle><circle r="37.5" cx="0" cy="900" fill="hsl(248, 73%, 50%)"></circle><circle r="37.5" cx="75" cy="0" fill="hsl(243, 73%, 50%)"></circle><circle r="37.5" cx="75" cy="75" fill="hsl(243, 73%, 50%)"></circle><circle r="37.5" cx="75" cy="150" fill="hsl(243, 73%, 50%)"></circle><circle r="37.5" cx="75" cy="225" fill="hsl(243, 73%, 50%)"></circle><circle r="37.5" cx="75" cy="300" fill="hsl(243, 73%, 50%)"></circle><circle r="37.5" cx="75" cy="375" fill="hsl(243, 73%, 50%)"></circle><circle r="37.5" cx="75" cy="450" fill="hsl(244, 73%, 50%)"></circle><circle r="37.5" cx="75" cy="525" fill="hsl(244, 73%, 50%)"></circle><circle r="37.5" cx="75" cy="600" fill="hsl(244, 73%, 50%)"></circle><circle r="37.5" cx="75" cy="675" fill="hsl(244, 73%, 50%)"></circle><circle r="37.5" cx="75" cy="750" fill="hsl(244, 73%, 50%)"></circle><circle r="37.5" cx="75" cy="825" fill="hsl(244, 73%, 50%)"></circle><circle r="37.5" cx="75" cy="900" fill="hsl(244, 73%, 50%)"></circle><circle r="37.5" cx="150" cy="0" fill="hsl(235, 73%, 50%)"></circle><circle r="37.5" cx="150" cy="75" fill="hsl(235, 73%, 50%)"></circle><circle r="37.5" cx="150" cy="150" fill="hsl(235, 73%, 50%)"></circle><circle r="37.5" cx="150" cy="225" fill="hsl(236, 73%, 50%)"></circle><circle r="37.5" cx="150" cy="300" fill="hsl(236, 73%, 50%)"></circle><circle r="37.5" cx="150" cy="375" fill="hsl(237, 73%, 50%)"></circle><circle r="37.5" cx="150" cy="450" fill="hsl(237, 73%, 50%)"></circle><circle r="37.5" cx="150" cy="525" fill="hsl(238, 73%, 50%)"></circle><circle r="37.5" cx="150" cy="600" fill="hsl(239, 73%, 50%)"></circle><circle r="37.5" cx="150" cy="675" fill="hsl(239, 73%, 50%)"></circle><circle r="37.5" cx="150" cy="750" fill="hsl(240, 73%, 50%)"></circle><circle r="37.5" cx="150" cy="825" fill="hsl(240, 73%, 50%)"></circle><circle r="37.5" cx="150" cy="900" fill="hsl(240, 73%, 50%)"></circle><circle r="37.5" cx="225" cy="0" fill="hsl(221, 73%, 50%)"></circle><circle r="37.5" cx="225" cy="75" fill="hsl(221, 73%, 50%)"></circle><circle r="37.5" cx="225" cy="150" fill="hsl(222, 73%, 50%)"></circle><circle r="37.5" cx="225" cy="225" fill="hsl(222, 73%, 50%)"></circle><circle r="37.5" cx="225" cy="300" fill="hsl(223, 73%, 50%)"></circle><circle r="37.5" cx="225" cy="375" fill="hsl(224, 73%, 50%)"></circle><circle r="37.5" cx="225" cy="450" fill="hsl(225, 73%, 50%)"></circle><circle r="37.5" cx="225" cy="525" fill="hsl(226, 73%, 50%)"></circle><circle r="37.5" cx="225" cy="600" fill="hsl(229, 73%, 50%)"></circle><circle r="37.5" cx="225" cy="675" fill="hsl(230, 73%, 50%)"></circle><circle r="37.5" cx="225" cy="750" fill="hsl(232, 73%, 50%)"></circle><circle r="37.5" cx="225" cy="825" fill="hsl(232, 73%, 50%)"></circle><circle r="37.5" cx="225" cy="900" fill="hsl(232, 73%, 50%)"></circle><circle r="37.5" cx="300" cy="0" fill="hsl(215, 73%, 50%)"></circle><circle r="37.5" cx="300" cy="75" fill="hsl(215, 73%, 50%)"></circle><circle r="37.5" cx="300" cy="150" fill="hsl(215, 73%, 50%)"></circle><circle r="37.5" cx="300" cy="225" fill="hsl(216, 73%, 50%)"></circle><circle r="37.5" cx="300" cy="300" fill="hsl(217, 73%, 50%)"></circle><circle r="37.5" cx="300" cy="375" fill="hsl(219, 73%, 50%)"></circle><circle r="37.5" cx="300" cy="450" fill="hsl(220, 73%, 50%)"></circle><circle r="37.5" cx="300" cy="525" fill="hsl(221, 73%, 50%)"></circle><circle r="37.5" cx="300" cy="600" fill="hsl(224, 73%, 50%)"></circle><circle r="37.5" cx="300" cy="675" fill="hsl(226, 73%, 50%)"></circle><circle r="37.5" cx="300" cy="750" fill="hsl(229, 73%, 50%)"></circle><circle r="37.5" cx="300" cy="825" fill="hsl(229, 73%, 50%)"></circle><circle r="37.5" cx="300" cy="900" fill="hsl(229, 73%, 50%)"></circle><circle r="37.5" cx="375" cy="0" fill="hsl(204, 73%, 50%)"></circle><circle r="37.5" cx="375" cy="75" fill="hsl(204, 73%, 50%)"></circle><circle r="37.5" cx="375" cy="150" fill="hsl(204, 73%, 50%)"></circle><circle r="37.5" cx="375" cy="225" fill="hsl(205, 73%, 50%)"></circle><circle r="37.5" cx="375" cy="300" fill="hsl(206, 73%, 50%)"></circle><circle r="37.5" cx="375" cy="375" fill="hsl(209, 73%, 50%)"></circle><circle r="37.5" cx="375" cy="450" fill="hsl(211, 73%, 50%)"></circle><circle r="37.5" cx="375" cy="525" fill="hsl(212, 73%, 50%)"></circle><circle r="37.5" cx="375" cy="600" fill="hsl(217, 73%, 50%)"></circle><circle r="37.5" cx="375" cy="675" fill="hsl(219, 73%, 50%)"></circle><circle r="37.5" cx="375" cy="750" fill="hsl(224, 73%, 50%)"></circle><circle r="37.5" cx="375" cy="825" fill="hsl(224, 73%, 50%)"></circle><circle r="37.5" cx="375" cy="900" fill="hsl(224, 73%, 50%)"></circle><circle r="37.5" cx="450" cy="0" fill="hsl(199, 73%, 50%)"></circle><circle r="37.5" cx="450" cy="75" fill="hsl(199, 73%, 50%)"></circle><circle r="37.5" cx="450" cy="150" fill="hsl(199, 73%, 50%)"></circle><circle r="37.5" cx="450" cy="225" fill="hsl(201, 73%, 50%)"></circle><circle r="37.5" cx="450" cy="300" fill="hsl(202, 73%, 50%)"></circle><circle r="37.5" cx="450" cy="375" fill="hsl(205, 73%, 50%)"></circle><circle r="37.5" cx="450" cy="450" fill="hsl(207, 73%, 50%)"></circle><circle r="37.5" cx="450" cy="525" fill="hsl(209, 73%, 50%)"></circle><circle r="37.5" cx="450" cy="600" fill="hsl(214, 73%, 50%)"></circle><circle r="37.5" cx="450" cy="675" fill="hsl(217, 73%, 50%)"></circle><circle r="37.5" cx="450" cy="750" fill="hsl(223, 73%, 50%)"></circle><circle r="37.5" cx="450" cy="825" fill="hsl(223, 73%, 50%)"></circle><circle r="37.5" cx="450" cy="900" fill="hsl(223, 73%, 50%)"></circle><circle r="37.5" cx="525" cy="0" fill="hsl(195, 73%, 50%)"></circle><circle r="37.5" cx="525" cy="75" fill="hsl(195, 73%, 50%)"></circle><circle r="37.5" cx="525" cy="150" fill="hsl(195, 73%, 50%)"></circle><circle r="37.5" cx="525" cy="225" fill="hsl(197, 73%, 50%)"></circle><circle r="37.5" cx="525" cy="300" fill="hsl(198, 73%, 50%)"></circle><circle r="37.5" cx="525" cy="375" fill="hsl(201, 73%, 50%)"></circle><circle r="37.5" cx="525" cy="450" fill="hsl(204, 73%, 50%)"></circle><circle r="37.5" cx="525" cy="525" fill="hsl(206, 73%, 50%)"></circle><circle r="37.5" cx="525" cy="600" fill="hsl(212, 73%, 50%)"></circle><circle r="37.5" cx="525" cy="675" fill="hsl(215, 73%, 50%)"></circle><circle r="37.5" cx="525" cy="750" fill="hsl(222, 73%, 50%)"></circle><circle r="37.5" cx="525" cy="825" fill="hsl(222, 73%, 50%)"></circle><circle r="37.5" cx="525" cy="900" fill="hsl(222, 73%, 50%)"></circle><circle r="37.5" cx="600" cy="0" fill="hsl(188, 73%, 50%)"></circle><circle r="37.5" cx="600" cy="75" fill="hsl(189, 73%, 50%)"></circle><circle r="37.5" cx="600" cy="150" fill="hsl(189, 73%, 50%)"></circle><circle r="37.5" cx="600" cy="225" fill="hsl(191, 73%, 50%)"></circle><circle r="37.5" cx="600" cy="300" fill="hsl(193, 73%, 50%)"></circle><circle r="37.5" cx="600" cy="375" fill="hsl(197, 73%, 50%)"></circle><circle r="37.5" cx="600" cy="450" fill="hsl(199, 73%, 50%)"></circle><circle r="37.5" cx="600" cy="525" fill="hsl(202, 73%, 50%)"></circle><circle r="37.5" cx="600" cy="600" fill="hsl(209, 73%, 50%)"></circle><circle r="37.5" cx="600" cy="675" fill="hsl(213, 73%, 50%)"></circle><circle r="37.5" cx="600" cy="750" fill="hsl(222, 73%, 50%)"></circle><circle r="37.5" cx="600" cy="825" fill="hsl(222, 73%, 50%)"></circle><circle r="37.5" cx="600" cy="900" fill="hsl(222, 73%, 50%)"></circle><circle r="37.5" cx="675" cy="0" fill="hsl(186, 73%, 50%)"></circle><circle r="37.5" cx="675" cy="75" fill="hsl(186, 73%, 50%)"></circle><circle r="37.5" cx="675" cy="150" fill="hsl(187, 73%, 50%)"></circle><circle r="37.5" cx="675" cy="225" fill="hsl(189, 73%, 50%)"></circle><circle r="37.5" cx="675" cy="300" fill="hsl(191, 73%, 50%)"></circle><circle r="37.5" cx="675" cy="375" fill="hsl(196, 73%, 50%)"></circle><circle r="37.5" cx="675" cy="450" fill="hsl(198, 73%, 50%)"></circle><circle r="37.5" cx="675" cy="525" fill="hsl(202, 73%, 50%)"></circle><circle r="37.5" cx="675" cy="600" fill="hsl(209, 73%, 50%)"></circle><circle r="37.5" cx="675" cy="675" fill="hsl(213, 73%, 50%)"></circle><circle r="37.5" cx="675" cy="750" fill="hsl(222, 73%, 50%)"></circle><circle r="37.5" cx="675" cy="825" fill="hsl(222, 73%, 50%)"></circle><circle r="37.5" cx="675" cy="900" fill="hsl(222, 73%, 50%)"></circle><circle r="37.5" cx="750" cy="0" fill="hsl(183, 73%, 50%)"></circle><circle r="37.5" cx="750" cy="75" fill="hsl(183, 73%, 50%)"></circle><circle r="37.5" cx="750" cy="150" fill="hsl(185, 73%, 50%)"></circle><circle r="37.5" cx="750" cy="225" fill="hsl(188, 73%, 50%)"></circle><circle r="37.5" cx="750" cy="300" fill="hsl(190, 73%, 50%)"></circle><circle r="37.5" cx="750" cy="375" fill="hsl(195, 73%, 50%)"></circle><circle r="37.5" cx="750" cy="450" fill="hsl(199, 73%, 50%)"></circle><circle r="37.5" cx="750" cy="525" fill="hsl(202, 73%, 50%)"></circle><circle r="37.5" cx="750" cy="600" fill="hsl(211, 73%, 50%)"></circle><circle r="37.5" cx="750" cy="675" fill="hsl(215, 73%, 50%)"></circle><circle r="37.5" cx="750" cy="750" fill="hsl(225, 73%, 50%)"></circle><circle r="37.5" cx="750" cy="825" fill="hsl(225, 73%, 50%)"></circle><circle r="37.5" cx="750" cy="900" fill="hsl(225, 73%, 50%)"></circle><circle r="37.5" cx="825" cy="0" fill="hsl(183, 73%, 50%)"></circle><circle r="37.5" cx="825" cy="75" fill="hsl(183, 73%, 50%)"></circle><circle r="37.5" cx="825" cy="150" fill="hsl(185, 73%, 50%)"></circle><circle r="37.5" cx="825" cy="225" fill="hsl(188, 73%, 50%)"></circle><circle r="37.5" cx="825" cy="300" fill="hsl(190, 73%, 50%)"></circle><circle r="37.5" cx="825" cy="375" fill="hsl(195, 73%, 50%)"></circle><circle r="37.5" cx="825" cy="450" fill="hsl(199, 73%, 50%)"></circle><circle r="37.5" cx="825" cy="525" fill="hsl(202, 73%, 50%)"></circle><circle r="37.5" cx="825" cy="600" fill="hsl(211, 73%, 50%)"></circle><circle r="37.5" cx="825" cy="675" fill="hsl(215, 73%, 50%)"></circle><circle r="37.5" cx="825" cy="750" fill="hsl(225, 73%, 50%)"></circle><circle r="37.5" cx="825" cy="825" fill="hsl(225, 73%, 50%)"></circle><circle r="37.5" cx="825" cy="900" fill="hsl(225, 73%, 50%)"></circle><circle r="37.5" cx="900" cy="0" fill="hsl(183, 73%, 50%)"></circle><circle r="37.5" cx="900" cy="75" fill="hsl(183, 73%, 50%)"></circle><circle r="37.5" cx="900" cy="150" fill="hsl(185, 73%, 50%)"></circle><circle r="37.5" cx="900" cy="225" fill="hsl(188, 73%, 50%)"></circle><circle r="37.5" cx="900" cy="300" fill="hsl(190, 73%, 50%)"></circle><circle r="37.5" cx="900" cy="375" fill="hsl(195, 73%, 50%)"></circle><circle r="37.5" cx="900" cy="450" fill="hsl(199, 73%, 50%)"></circle><circle r="37.5" cx="900" cy="525" fill="hsl(202, 73%, 50%)"></circle><circle r="37.5" cx="900" cy="600" fill="hsl(211, 73%, 50%)"></circle><circle r="37.5" cx="900" cy="675" fill="hsl(215, 73%, 50%)"></circle><circle r="37.5" cx="900" cy="750" fill="hsl(225, 73%, 50%)"></circle><circle r="37.5" cx="900" cy="825" fill="hsl(225, 73%, 50%)"></circle><circle r="37.5" cx="900" cy="900" fill="hsl(225, 73%, 50%)"></circle><circle r="37.5" cx="975" cy="0" fill="hsl(183, 73%, 50%)"></circle><circle r="37.5" cx="975" cy="75" fill="hsl(183, 73%, 50%)"></circle><circle r="37.5" cx="975" cy="150" fill="hsl(185, 73%, 50%)"></circle><circle r="37.5" cx="975" cy="225" fill="hsl(188, 73%, 50%)"></circle><circle r="37.5" cx="975" cy="300" fill="hsl(190, 73%, 50%)"></circle><circle r="37.5" cx="975" cy="375" fill="hsl(195, 73%, 50%)"></circle><circle r="37.5" cx="975" cy="450" fill="hsl(199, 73%, 50%)"></circle><circle r="37.5" cx="975" cy="525" fill="hsl(202, 73%, 50%)"></circle><circle r="37.5" cx="975" cy="600" fill="hsl(211, 73%, 50%)"></circle><circle r="37.5" cx="975" cy="675" fill="hsl(215, 73%, 50%)"></circle><circle r="37.5" cx="975" cy="750" fill="hsl(225, 73%, 50%)"></circle><circle r="37.5" cx="975" cy="825" fill="hsl(225, 73%, 50%)"></circle><circle r="37.5" cx="975" cy="900" fill="hsl(225, 73%, 50%)"></circle></g><g transform="matrix(1,0,0,1,-37.5,0)"><circle r="37.5" cx="0" cy="37.5" fill="hsl(250, 73%, 50%)"></circle><circle r="37.5" cx="0" cy="112.5" fill="hsl(250, 73%, 50%)"></circle><circle r="37.5" cx="0" cy="187.5" fill="hsl(250, 73%, 50%)"></circle><circle r="37.5" cx="0" cy="262.5" fill="hsl(250, 73%, 50%)"></circle><circle r="37.5" cx="0" cy="337.5" fill="hsl(250, 73%, 50%)"></circle><circle r="37.5" cx="0" cy="412.5" fill="hsl(250, 73%, 50%)"></circle><circle r="37.5" cx="0" cy="487.5" fill="hsl(250, 73%, 50%)"></circle><circle r="37.5" cx="0" cy="562.5" fill="hsl(250, 73%, 50%)"></circle><circle r="37.5" cx="0" cy="637.5" fill="hsl(250, 73%, 50%)"></circle><circle r="37.5" cx="0" cy="712.5" fill="hsl(249, 73%, 50%)"></circle><circle r="37.5" cx="0" cy="787.5" fill="hsl(248, 73%, 50%)"></circle><circle r="37.5" cx="0" cy="862.5" fill="hsl(248, 73%, 50%)"></circle><circle r="37.5" cx="75" cy="37.5" fill="hsl(243, 73%, 50%)"></circle><circle r="37.5" cx="75" cy="112.5" fill="hsl(243, 73%, 50%)"></circle><circle r="37.5" cx="75" cy="187.5" fill="hsl(243, 73%, 50%)"></circle><circle r="37.5" cx="75" cy="262.5" fill="hsl(243, 73%, 50%)"></circle><circle r="37.5" cx="75" cy="337.5" fill="hsl(243, 73%, 50%)"></circle><circle r="37.5" cx="75" cy="412.5" fill="hsl(243, 73%, 50%)"></circle><circle r="37.5" cx="75" cy="487.5" fill="hsl(244, 73%, 50%)"></circle><circle r="37.5" cx="75" cy="562.5" fill="hsl(244, 73%, 50%)"></circle><circle r="37.5" cx="75" cy="637.5" fill="hsl(244, 73%, 50%)"></circle><circle r="37.5" cx="75" cy="712.5" fill="hsl(244, 73%, 50%)"></circle><circle r="37.5" cx="75" cy="787.5" fill="hsl(244, 73%, 50%)"></circle><circle r="37.5" cx="75" cy="862.5" fill="hsl(244, 73%, 50%)"></circle><circle r="37.5" cx="150" cy="37.5" fill="hsl(235, 73%, 50%)"></circle><circle r="37.5" cx="150" cy="112.5" fill="hsl(235, 73%, 50%)"></circle><circle r="37.5" cx="150" cy="187.5" fill="hsl(236, 73%, 50%)"></circle><circle r="37.5" cx="150" cy="262.5" fill="hsl(236, 73%, 50%)"></circle><circle r="37.5" cx="150" cy="337.5" fill="hsl(236, 73%, 50%)"></circle><circle r="37.5" cx="150" cy="412.5" fill="hsl(237, 73%, 50%)"></circle><circle r="37.5" cx="150" cy="487.5" fill="hsl(238, 73%, 50%)"></circle><circle r="37.5" cx="150" cy="562.5" fill="hsl(238, 73%, 50%)"></circle><circle r="37.5" cx="150" cy="637.5" fill="hsl(239, 73%, 50%)"></circle><circle r="37.5" cx="150" cy="712.5" fill="hsl(240, 73%, 50%)"></circle><circle r="37.5" cx="150" cy="787.5" fill="hsl(240, 73%, 50%)"></circle><circle r="37.5" cx="150" cy="862.5" fill="hsl(240, 73%, 50%)"></circle><circle r="37.5" cx="225" cy="37.5" fill="hsl(221, 73%, 50%)"></circle><circle r="37.5" cx="225" cy="112.5" fill="hsl(222, 73%, 50%)"></circle><circle r="37.5" cx="225" cy="187.5" fill="hsl(222, 73%, 50%)"></circle><circle r="37.5" cx="225" cy="262.5" fill="hsl(222, 73%, 50%)"></circle><circle r="37.5" cx="225" cy="337.5" fill="hsl(224, 73%, 50%)"></circle><circle r="37.5" cx="225" cy="412.5" fill="hsl(224, 73%, 50%)"></circle><circle r="37.5" cx="225" cy="487.5" fill="hsl(226, 73%, 50%)"></circle><circle r="37.5" cx="225" cy="562.5" fill="hsl(228, 73%, 50%)"></circle><circle r="37.5" cx="225" cy="637.5" fill="hsl(229, 73%, 50%)"></circle><circle r="37.5" cx="225" cy="712.5" fill="hsl(231, 73%, 50%)"></circle><circle r="37.5" cx="225" cy="787.5" fill="hsl(232, 73%, 50%)"></circle><circle r="37.5" cx="225" cy="862.5" fill="hsl(232, 73%, 50%)"></circle><circle r="37.5" cx="300" cy="37.5" fill="hsl(215, 73%, 50%)"></circle><circle r="37.5" cx="300" cy="112.5" fill="hsl(215, 73%, 50%)"></circle><circle r="37.5" cx="300" cy="187.5" fill="hsl(216, 73%, 50%)"></circle><circle r="37.5" cx="300" cy="262.5" fill="hsl(216, 73%, 50%)"></circle><circle r="37.5" cx="300" cy="337.5" fill="hsl(218, 73%, 50%)"></circle><circle r="37.5" cx="300" cy="412.5" fill="hsl(219, 73%, 50%)"></circle><circle r="37.5" cx="300" cy="487.5" fill="hsl(221, 73%, 50%)"></circle><circle r="37.5" cx="300" cy="562.5" fill="hsl(223, 73%, 50%)"></circle><circle r="37.5" cx="300" cy="637.5" fill="hsl(224, 73%, 50%)"></circle><circle r="37.5" cx="300" cy="712.5" fill="hsl(228, 73%, 50%)"></circle><circle r="37.5" cx="300" cy="787.5" fill="hsl(229, 73%, 50%)"></circle><circle r="37.5" cx="300" cy="862.5" fill="hsl(229, 73%, 50%)"></circle><circle r="37.5" cx="375" cy="37.5" fill="hsl(204, 73%, 50%)"></circle><circle r="37.5" cx="375" cy="112.5" fill="hsl(204, 73%, 50%)"></circle><circle r="37.5" cx="375" cy="187.5" fill="hsl(205, 73%, 50%)"></circle><circle r="37.5" cx="375" cy="262.5" fill="hsl(205, 73%, 50%)"></circle><circle r="37.5" cx="375" cy="337.5" fill="hsl(207, 73%, 50%)"></circle><circle r="37.5" cx="375" cy="412.5" fill="hsl(209, 73%, 50%)"></circle><circle r="37.5" cx="375" cy="487.5" fill="hsl(212, 73%, 50%)"></circle><circle r="37.5" cx="375" cy="562.5" fill="hsl(214, 73%, 50%)"></circle><circle r="37.5" cx="375" cy="637.5" fill="hsl(217, 73%, 50%)"></circle><circle r="37.5" cx="375" cy="712.5" fill="hsl(222, 73%, 50%)"></circle><circle r="37.5" cx="375" cy="787.5" fill="hsl(224, 73%, 50%)"></circle><circle r="37.5" cx="375" cy="862.5" fill="hsl(224, 73%, 50%)"></circle><circle r="37.5" cx="450" cy="37.5" fill="hsl(199, 73%, 50%)"></circle><circle r="37.5" cx="450" cy="112.5" fill="hsl(199, 73%, 50%)"></circle><circle r="37.5" cx="450" cy="187.5" fill="hsl(200, 73%, 50%)"></circle><circle r="37.5" cx="450" cy="262.5" fill="hsl(201, 73%, 50%)"></circle><circle r="37.5" cx="450" cy="337.5" fill="hsl(203, 73%, 50%)"></circle><circle r="37.5" cx="450" cy="412.5" fill="hsl(205, 73%, 50%)"></circle><circle r="37.5" cx="450" cy="487.5" fill="hsl(209, 73%, 50%)"></circle><circle r="37.5" cx="450" cy="562.5" fill="hsl(211, 73%, 50%)"></circle><circle r="37.5" cx="450" cy="637.5" fill="hsl(214, 73%, 50%)"></circle><circle r="37.5" cx="450" cy="712.5" fill="hsl(220, 73%, 50%)"></circle><circle r="37.5" cx="450" cy="787.5" fill="hsl(223, 73%, 50%)"></circle><circle r="37.5" cx="450" cy="862.5" fill="hsl(223, 73%, 50%)"></circle><circle r="37.5" cx="525" cy="37.5" fill="hsl(195, 73%, 50%)"></circle><circle r="37.5" cx="525" cy="112.5" fill="hsl(195, 73%, 50%)"></circle><circle r="37.5" cx="525" cy="187.5" fill="hsl(196, 73%, 50%)"></circle><circle r="37.5" cx="525" cy="262.5" fill="hsl(197, 73%, 50%)"></circle><circle r="37.5" cx="525" cy="337.5" fill="hsl(200, 73%, 50%)"></circle><circle r="37.5" cx="525" cy="412.5" fill="hsl(201, 73%, 50%)"></circle><circle r="37.5" cx="525" cy="487.5" fill="hsl(206, 73%, 50%)"></circle><circle r="37.5" cx="525" cy="562.5" fill="hsl(209, 73%, 50%)"></circle><circle r="37.5" cx="525" cy="637.5" fill="hsl(212, 73%, 50%)"></circle><circle r="37.5" cx="525" cy="712.5" fill="hsl(218, 73%, 50%)"></circle><circle r="37.5" cx="525" cy="787.5" fill="hsl(222, 73%, 50%)"></circle><circle r="37.5" cx="525" cy="862.5" fill="hsl(222, 73%, 50%)"></circle><circle r="37.5" cx="600" cy="37.5" fill="hsl(188, 73%, 50%)"></circle><circle r="37.5" cx="600" cy="112.5" fill="hsl(189, 73%, 50%)"></circle><circle r="37.5" cx="600" cy="187.5" fill="hsl(190, 73%, 50%)"></circle><circle r="37.5" cx="600" cy="262.5" fill="hsl(191, 73%, 50%)"></circle><circle r="37.5" cx="600" cy="337.5" fill="hsl(195, 73%, 50%)"></circle><circle r="37.5" cx="600" cy="412.5" fill="hsl(197, 73%, 50%)"></circle><circle r="37.5" cx="600" cy="487.5" fill="hsl(202, 73%, 50%)"></circle><circle r="37.5" cx="600" cy="562.5" fill="hsl(206, 73%, 50%)"></circle><circle r="37.5" cx="600" cy="637.5" fill="hsl(209, 73%, 50%)"></circle><circle r="37.5" cx="600" cy="712.5" fill="hsl(217, 73%, 50%)"></circle><circle r="37.5" cx="600" cy="787.5" fill="hsl(222, 73%, 50%)"></circle><circle r="37.5" cx="600" cy="862.5" fill="hsl(222, 73%, 50%)"></circle><circle r="37.5" cx="675" cy="37.5" fill="hsl(186, 73%, 50%)"></circle><circle r="37.5" cx="675" cy="112.5" fill="hsl(187, 73%, 50%)"></circle><circle r="37.5" cx="675" cy="187.5" fill="hsl(188, 73%, 50%)"></circle><circle r="37.5" cx="675" cy="262.5" fill="hsl(189, 73%, 50%)"></circle><circle r="37.5" cx="675" cy="337.5" fill="hsl(193, 73%, 50%)"></circle><circle r="37.5" cx="675" cy="412.5" fill="hsl(196, 73%, 50%)"></circle><circle r="37.5" cx="675" cy="487.5" fill="hsl(202, 73%, 50%)"></circle><circle r="37.5" cx="675" cy="562.5" fill="hsl(205, 73%, 50%)"></circle><circle r="37.5" cx="675" cy="637.5" fill="hsl(209, 73%, 50%)"></circle><circle r="37.5" cx="675" cy="712.5" fill="hsl(218, 73%, 50%)"></circle><circle r="37.5" cx="675" cy="787.5" fill="hsl(222, 73%, 50%)"></circle><circle r="37.5" cx="675" cy="862.5" fill="hsl(222, 73%, 50%)"></circle><circle r="37.5" cx="750" cy="37.5" fill="hsl(183, 73%, 50%)"></circle><circle r="37.5" cx="750" cy="112.5" fill="hsl(185, 73%, 50%)"></circle><circle r="37.5" cx="750" cy="187.5" fill="hsl(186, 73%, 50%)"></circle><circle r="37.5" cx="750" cy="262.5" fill="hsl(188, 73%, 50%)"></circle><circle r="37.5" cx="750" cy="337.5" fill="hsl(192, 73%, 50%)"></circle><circle r="37.5" cx="750" cy="412.5" fill="hsl(195, 73%, 50%)"></circle><circle r="37.5" cx="750" cy="487.5" fill="hsl(202, 73%, 50%)"></circle><circle r="37.5" cx="750" cy="562.5" fill="hsl(206, 73%, 50%)"></circle><circle r="37.5" cx="750" cy="637.5" fill="hsl(211, 73%, 50%)"></circle><circle r="37.5" cx="750" cy="712.5" fill="hsl(220, 73%, 50%)"></circle><circle r="37.5" cx="750" cy="787.5" fill="hsl(225, 73%, 50%)"></circle><circle r="37.5" cx="750" cy="862.5" fill="hsl(225, 73%, 50%)"></circle><circle r="37.5" cx="825" cy="37.5" fill="hsl(183, 73%, 50%)"></circle><circle r="37.5" cx="825" cy="112.5" fill="hsl(185, 73%, 50%)"></circle><circle r="37.5" cx="825" cy="187.5" fill="hsl(186, 73%, 50%)"></circle><circle r="37.5" cx="825" cy="262.5" fill="hsl(188, 73%, 50%)"></circle><circle r="37.5" cx="825" cy="337.5" fill="hsl(192, 73%, 50%)"></circle><circle r="37.5" cx="825" cy="412.5" fill="hsl(195, 73%, 50%)"></circle><circle r="37.5" cx="825" cy="487.5" fill="hsl(202, 73%, 50%)"></circle><circle r="37.5" cx="825" cy="562.5" fill="hsl(206, 73%, 50%)"></circle><circle r="37.5" cx="825" cy="637.5" fill="hsl(211, 73%, 50%)"></circle><circle r="37.5" cx="825" cy="712.5" fill="hsl(220, 73%, 50%)"></circle><circle r="37.5" cx="825" cy="787.5" fill="hsl(225, 73%, 50%)"></circle><circle r="37.5" cx="825" cy="862.5" fill="hsl(225, 73%, 50%)"></circle><circle r="37.5" cx="900" cy="37.5" fill="hsl(183, 73%, 50%)"></circle><circle r="37.5" cx="900" cy="112.5" fill="hsl(185, 73%, 50%)"></circle><circle r="37.5" cx="900" cy="187.5" fill="hsl(186, 73%, 50%)"></circle><circle r="37.5" cx="900" cy="262.5" fill="hsl(188, 73%, 50%)"></circle><circle r="37.5" cx="900" cy="337.5" fill="hsl(192, 73%, 50%)"></circle><circle r="37.5" cx="900" cy="412.5" fill="hsl(195, 73%, 50%)"></circle><circle r="37.5" cx="900" cy="487.5" fill="hsl(202, 73%, 50%)"></circle><circle r="37.5" cx="900" cy="562.5" fill="hsl(206, 73%, 50%)"></circle><circle r="37.5" cx="900" cy="637.5" fill="hsl(211, 73%, 50%)"></circle><circle r="37.5" cx="900" cy="712.5" fill="hsl(220, 73%, 50%)"></circle><circle r="37.5" cx="900" cy="787.5" fill="hsl(225, 73%, 50%)"></circle><circle r="37.5" cx="900" cy="862.5" fill="hsl(225, 73%, 50%)"></circle><circle r="37.5" cx="975" cy="37.5" fill="hsl(183, 73%, 50%)"></circle><circle r="37.5" cx="975" cy="112.5" fill="hsl(185, 73%, 50%)"></circle><circle r="37.5" cx="975" cy="187.5" fill="hsl(186, 73%, 50%)"></circle><circle r="37.5" cx="975" cy="262.5" fill="hsl(188, 73%, 50%)"></circle><circle r="37.5" cx="975" cy="337.5" fill="hsl(192, 73%, 50%)"></circle><circle r="37.5" cx="975" cy="412.5" fill="hsl(195, 73%, 50%)"></circle><circle r="37.5" cx="975" cy="487.5" fill="hsl(202, 73%, 50%)"></circle><circle r="37.5" cx="975" cy="562.5" fill="hsl(206, 73%, 50%)"></circle><circle r="37.5" cx="975" cy="637.5" fill="hsl(211, 73%, 50%)"></circle><circle r="37.5" cx="975" cy="712.5" fill="hsl(220, 73%, 50%)"></circle><circle r="37.5" cx="975" cy="787.5" fill="hsl(225, 73%, 50%)"></circle><circle r="37.5" cx="975" cy="862.5" fill="hsl(225, 73%, 50%)"></circle></g></svg>